<svg width="177" height="69" viewBox="0 0 177 69" fill="none" xmlns="http://www.w3.org/2000/svg">
<path d="M83.0199 0C84.5299 0.74 85.0799 1.95 85.0599 3.62C84.9999 8.13 85.0399 12.64 85.0399 17.14V17.92H85.9799C92.8599 17.92 99.7499 17.92 106.63 17.92C108.96 17.92 110.11 19.08 110.11 21.42C110.11 25.21 110.11 28.99 110.11 32.78C110.11 34.96 108.92 36.15 106.71 36.15C99.7799 36.15 92.8499 36.15 85.9299 36.15H85.0899C85.0799 36.43 85.0599 36.65 85.0599 36.87C85.0599 40.3 85.0599 43.72 85.0599 47.15C85.0599 49.08 86.2999 50.32 88.2299 50.32C94.4099 50.32 100.6 50.32 106.78 50.32C108.92 50.32 110.12 51.52 110.12 53.68C110.12 57.58 110.12 61.48 110.12 65.38C110.12 66.5 109.72 67.42 108.77 68.02C108.39 68.26 107.9 68.43 107.45 68.43C98.0399 68.45 88.6299 68.49 79.2199 68.42C76.4299 68.4 73.9699 67.19 71.8399 65.41C68.5099 62.64 66.8099 59.06 66.7899 54.72C66.7699 48.84 66.7899 42.95 66.7899 37.07C66.7899 36.8 66.7899 36.53 66.7899 36.15C66.5099 36.15 66.2799 36.15 66.0399 36.15C64.6399 36.15 63.2399 36.16 61.8399 36.15C60.0199 36.13 58.7399 34.94 58.7199 33.12C58.6799 29.06 58.6799 25.01 58.7199 20.95C58.7399 19.14 60.0299 17.95 61.8599 17.93C63.2399 17.91 64.6099 17.93 65.9899 17.93H66.7899V17.13C66.7899 12.6 66.8299 8.07 66.7699 3.54C66.7499 1.89 67.3199 0.71 68.8199 0.01H83.0399L83.0199 0Z" fill="black"/>
<path d="M0 41.2601C0.22 40.0001 0.39 38.7301 0.68 37.4801C2.98 27.5301 11.38 19.8401 21.52 18.4001C22.74 18.2301 23.99 18.1301 25.23 18.1301C32.84 18.1101 40.44 18.1201 48.05 18.1201C50.18 18.1201 51.37 19.3001 51.37 21.4201C51.37 25.3001 51.37 29.1701 51.37 33.0501C51.37 35.1401 50.15 36.3601 48.04 36.3601C39.24 36.3601 30.43 36.4001 21.63 36.3301C19.56 36.3101 18.16 37.7701 18.24 39.7201C18.34 42.1701 18.26 44.6301 18.27 47.0901C18.27 49.1201 19.48 50.3301 21.51 50.3301C30.34 50.3301 39.16 50.3301 47.99 50.3301C50.21 50.3301 51.38 51.4901 51.38 53.6901C51.38 57.5701 51.38 61.4501 51.38 65.3201C51.38 66.4401 51.04 67.3801 50.09 67.9901C49.7 68.2401 49.18 68.4301 48.72 68.4301C40.23 68.4601 31.75 68.5301 23.26 68.4101C19.07 68.3501 15.21 66.8801 11.71 64.6101C5.13 60.3301 1.3 54.2601 0.17 46.5001C0.12 46.1501 0.06 45.8001 0 45.4501C0 44.0501 0 42.6501 0 41.2601Z" fill="black"/>
<path d="M129.48 50.67C129.48 49.15 129.49 47.6 129.46 46.05C129.46 45.85 129.24 45.62 129.08 45.45C127.51 43.86 125.92 42.29 124.35 40.71C122.52 38.87 122.5 36.5 124.33 34.66C127.39 31.59 130.46 28.54 133.52 25.48C133.69 25.31 133.91 25.18 134.34 24.86C133.97 24.63 133.72 24.53 133.54 24.36C130.48 21.32 127.44 18.28 124.39 15.23C122.49 13.33 122.48 10.97 124.37 9.08001C126.65 6.80001 128.93 4.52001 131.22 2.24001C133.03 0.440015 135.42 0.440015 137.23 2.24001C140.16 5.15001 143.07 8.07001 145.99 10.99C146.31 11.31 146.6 11.65 146.95 12.02C147.19 11.8 147.37 11.65 147.53 11.48C150.6 8.42001 153.66 5.36001 156.73 2.30001C158.6 0.430014 160.97 0.420015 162.83 2.28001C165.11 4.56001 167.4 6.84001 169.68 9.12001C171.51 10.95 171.51 13.34 169.68 15.17C166.62 18.23 163.55 21.29 160.49 24.35C160.32 24.52 160.09 24.64 159.82 24.84C160.91 25.91 161.87 26.86 162.82 27.81C165.1 30.09 167.39 32.37 169.67 34.65C171.51 36.49 171.52 38.85 169.7 40.69C168.22 42.18 166.72 43.64 165.26 45.15C165.01 45.41 164.83 45.83 164.82 46.19C164.77 47.67 164.8 49.16 164.8 50.67C165.74 50.78 166.66 50.83 167.56 50.99C172.66 51.96 176.35 56.41 176.35 61.58C176.35 62.91 176.31 64.24 176.36 65.57C176.41 66.93 175.05 68.49 173.44 68.47C166.02 68.4 158.59 68.44 151.17 68.44C149.71 68.44 148.99 67.72 148.99 66.24C148.99 59.46 148.99 52.67 148.99 45.89C148.99 45.58 148.99 45.25 148.91 44.95C148.69 44.02 147.9 43.46 146.96 43.55C146.05 43.63 145.35 44.37 145.34 45.32C145.32 47.33 145.34 49.33 145.34 51.34C145.34 56.28 145.34 61.21 145.34 66.15C145.34 66.86 145.21 67.53 144.64 67.97C144.33 68.21 143.88 68.43 143.5 68.43C135.83 68.46 128.15 68.45 120.48 68.45C119.44 68.45 118.19 67.57 118.08 66.42C117.7 62.33 117.48 58.23 120.39 54.78C122.6 52.16 125.43 50.85 128.85 50.77C129.01 50.77 129.17 50.77 129.32 50.75C129.36 50.75 129.4 50.72 129.51 50.67H129.48Z" fill="black"/>
</svg>
